<mxfile host="app.diagrams.net" modified="2024-01-04T16:05:29.951Z" agent="Mozilla/5.0 (Windows NT 10.0; Win64; x64) AppleWebKit/537.36 (KHTML, like Gecko) Chrome/118.0.0.0 YaBrowser/23.11.0.0 Safari/537.36" version="22.1.16" etag="YLsbB0ZY-rUzS4zNiv-Q" type="github">
  <diagram name="Страница — 1" id="ud3ylIMwG0aD1QvLuvcv">
    <mxGraphModel>
      <root>
        <mxCell id="0" />
        <mxCell id="1" parent="0" />
      </root>
    </mxGraphModel>
  </diagram>
</mxfile>
